SO_states
version=1
nRows=14
nColumns=49
inDegrees=yes
endheader
time	/jointset/bb/crank_angle/value	/jointset/bb/crank_angle/speed	/jointset/spindle/pedal_angle_r/value	/jointset/spindle/pedal_angle_r/speed	/jointset/ground_pelvis/pelvis_tilt/value	/jointset/ground_pelvis/pelvis_tilt/speed	/jointset/ground_pelvis/pelvis_list/value	/jointset/ground_pelvis/pelvis_list/speed	/jointset/ground_pelvis/pelvis_rotation/value	/jointset/ground_pelvis/pelvis_rotation/speed	/jointset/ground_pelvis/pelvis_tx/value	/jointset/ground_pelvis/pelvis_tx/speed	/jointset/ground_pelvis/pelvis_ty/value	/jointset/ground_pelvis/pelvis_ty/speed	/jointset/ground_pelvis/pelvis_tz/value	/jointset/ground_pelvis/pelvis_tz/speed	/jointset/hip_r/hip_angle_r/value	/jointset/hip_r/hip_angle_r/speed	/jointset/hip_r/hip_adduction_r/value	/jointset/hip_r/hip_adduction_r/speed	/jointset/hip_r/hip_rotation_r/value	/jointset/hip_r/hip_rotation_r/speed	/jointset/knee_r/knee_angle_r/value	/jointset/knee_r/knee_angle_r/speed	/jointset/knee_r/tib_tx_r/value	/jointset/knee_r/tib_tx_r/speed	/jointset/knee_r/tib_ty_r/value	/jointset/knee_r/tib_ty_r/speed	/jointset/tib_pat_r/pat_angle_r/value	/jointset/tib_pat_r/pat_angle_r/speed	/jointset/tib_pat_r/pat_tx_r/value	/jointset/tib_pat_r/pat_tx_r/speed	/jointset/tib_pat_r/pat_ty_r/value	/jointset/tib_pat_r/pat_ty_r/speed	/jointset/ankle_r/ankle_angle_r/value	/jointset/ankle_r/ankle_angle_r/speed	/jointset/subtalar_r/subtalar_angle_r/value	/jointset/subtalar_r/subtalar_angle_r/speed	/jointset/mtp_r/mtp_angle_r/value	/jointset/mtp_r/mtp_angle_r/speed	/forceset/bifemlh_r/activation	/forceset/bifemlh_r/fiber_length	/forceset/bifemsh_r/activation	/forceset/bifemsh_r/fiber_length	/forceset/glut_max2_r/activation	/forceset/glut_max2_r/fiber_length	/forceset/vas_int_r/activation	/forceset/vas_int_r/fiber_length
      0.20166826	   -141.72187462	   -480.13885650	    159.74971185	    494.89987288	      0.04752646	      0.00000000	      0.17030920	      0.00000000	     -0.01308287	      0.00000000	     -0.10000000	     -0.00000000	     -0.05000000	     -0.00000000	      0.00000000	     -0.00000000	     42.63409966	   -171.29581197	      4.22650434	     -0.46844073	      1.94879757	     14.91844242	    -47.58335652	    159.67908839	      0.00354896	     -0.02029053	     -0.47239391	      0.04279760	     16.96067862	     -8.28482193	      0.04633509	      0.04327403	     -0.02339475	     -0.00680452	     23.32501945	     26.33417216	      0.00000000	      0.00000000	      0.00000000	      0.00000000	      0.05000000	      0.10000000	      0.05000000	      0.10000000	      0.05000000	      0.10000000	      0.05000000	      0.10000000
      0.20177343	   -141.77251397	   -480.13840126	    159.80177217	    494.67743627	      0.04762676	      0.00000000	      0.17052300	      0.00000000	     -0.01319792	      0.00000000	     -0.10000000	      0.00000000	     -0.05000000	      0.00000000	      0.00000000	      0.00000000	     42.61599243	   -171.10451334	      4.22629524	     -0.46744554	      1.95056613	     14.88780124	    -47.56658978	    159.30203850	      0.00354679	     -0.02114035	     -0.47238944	      0.04257717	     16.95980069	     -8.27275295	      0.04633962	      0.04304364	     -0.02339542	     -0.00559796	     23.32765913	     26.30077897	      0.00000000	      0.00000000	      0.00000000	      0.00000000	      0.05000000	      0.10000000	      0.05000000	      0.10000000	      0.05000000	      0.10000000	      0.05000000	      0.10000000
      0.20218896	   -141.97259906	   -480.13877042	    160.00723726	    493.79302602	      0.04802133	      0.00000000	      0.17136580	      0.00000000	     -0.01365248	      0.00000000	     -0.10000000	     -0.00000000	     -0.05000000	     -0.00000000	      0.00000000	     -0.00000000	     42.54464901	   -170.34540864	      4.22547042	     -0.46552018	      1.95751932	     14.76480241	    -47.50073724	    157.79712943	      0.00353824	     -0.02026269	     -0.47237187	      0.04210190	     16.95634389	     -8.22827182	      0.04635742	      0.04272405	     -0.02339805	     -0.00644566	     23.33805117	     26.16227665	      0.00000000	      0.00000000	      0.00000000	      0.00000000	      0.05000000	      0.10000000	      0.05000000	      0.10000000	      0.05000000	      0.10000000	      0.05000000	      0.10000000
      0.20225528	   -142.00453440	   -480.13866910	    160.03999645	    493.65085453	      0.04808404	      0.00000000	      0.17150004	      0.00000000	     -0.01372502	      0.00000000	     -0.10000000	      0.00000000	     -0.05000000	      0.00000000	      0.00000000	      0.00000000	     42.53329190	   -170.22332914	      4.22533896	     -0.46515147	      1.95862395	     14.74515976	    -47.49028531	    157.55588640	      0.00353688	     -0.02042467	     -0.47236908	      0.04204740	     16.95579397	     -8.22077894	      0.04636024	      0.04261690	     -0.02339846	     -0.00625674	     23.33970416	     26.13984644	      0.00000000	      0.00000000	      0.00000000	      0.00000000	      0.05000000	      0.10000000	      0.05000000	      0.10000000	      0.05000000	      0.10000000	      0.05000000	      0.10000000
      0.20240609	   -142.07715571	   -480.13855214	    160.11445538	    493.32648908	      0.04822640	      0.00000000	      0.17180493	      0.00000000	     -0.01388998	      0.00000000	     -0.10000000	     -0.00000000	     -0.05000000	     -0.00000000	      0.00000000	     -0.00000000	     42.50749646	   -169.94521528	      4.22504030	     -0.46442485	      1.96113052	     14.70023857	    -47.46657793	    157.00566925	      0.00353380	     -0.02036100	     -0.47236276	      0.04201898	     16.95454533	     -8.20382978	      0.04636664	      0.04241476	     -0.02339941	     -0.00621727	     23.34345721	     26.08817091	      0.00000000	      0.00000000	      0.00000000	      0.00000000	      0.05000000	      0.10000000	      0.05000000	      0.10000000	      0.05000000	      0.10000000	      0.05000000	      0.10000000
      0.20263002	   -142.18499024	   -480.13877669	    160.22492618	    492.84240931	      0.04843709	      0.00000000	      0.17225685	      0.00000000	     -0.01413487	      0.00000000	     -0.10000000	      0.00000000	     -0.05000000	      0.00000000	      0.00000000	      0.00000000	     42.46927240	   -169.53001377	      4.22459740	     -0.46332405	      1.96483875	     14.63276054	    -47.43153052	    156.18484737	      0.00352925	     -0.02024859	     -0.47235342	      0.04150177	     16.95269614	     -8.17841934	      0.04637611	      0.04224698	     -0.02340080	     -0.00636709	     23.34901476	     26.01018351	      0.00000000	      0.00000000	      0.00000000	      0.00000000	      0.05000000	      0.10000000	      0.05000000	      0.10000000	      0.05000000	      0.10000000	      0.05000000	      0.10000000
      0.20290946	   -142.31956070	   -480.13847953	    160.36263075	    492.23304816	      0.04869884	      0.00000000	      0.17281940	      0.00000000	     -0.01444038	      0.00000000	     -0.10000000	     -0.00000000	     -0.05000000	     -0.00000000	      0.00000000	     -0.00000000	     42.42170491	   -169.00869614	      4.22404571	     -0.46135978	      1.96944311	     14.54793567	    -47.38805539	    155.15594779	      0.00352359	     -0.02004956	     -0.47234184	      0.04160491	     16.95039683	     -8.14585393	      0.04638784	      0.04189683	     -0.02340254	     -0.00601363	     23.35592417	     25.91089680	      0.00000000	      0.00000000	      0.00000000	      0.00000000	      0.05000000	      0.10000000	      0.05000000	      0.10000000	      0.05000000	      0.10000000	      0.05000000	      0.10000000
      0.20293740	   -142.33301609	   -480.13855093	    160.37638997	    492.17211959	      0.04872492	      0.00000000	      0.17287556	      0.00000000	     -0.01447092	      0.00000000	     -0.10000000	     -0.00000000	     -0.05000000	     -0.00000000	      0.00000000	     -0.00000000	     42.41695696	   -168.95621196	      4.22399061	     -0.46134775	      1.96990207	     14.53939515	    -47.38372444	    155.05231011	      0.00352303	     -0.02003925	     -0.47234069	      0.04141494	     16.95016745	     -8.14262590	      0.04638901	      0.04185401	     -0.02340271	     -0.00616954	     23.35661341	     25.90083451	      0.00000000	      0.00000000	      0.00000000	      0.00000000	      0.05000000	      0.10000000	      0.05000000	      0.10000000	      0.05000000	      0.10000000	      0.05000000	      0.10000000
      0.20298977	   -142.35823670	   -480.13868601	    160.40217535	    492.05764919	      0.04877380	      0.00000000	      0.17298079	      0.00000000	     -0.01452815	      0.00000000	     -0.10000000	      0.00000000	     -0.05000000	      0.00000000	      0.00000000	      0.00000000	     42.40806146	   -168.85784918	      4.22388736	     -0.46124947	      1.97076162	     14.52344480	    -47.37561447	    154.85805973	      0.00352197	     -0.02007019	     -0.47233853	      0.04114504	     16.94973775	     -8.13650422	      0.04639120	      0.04178660	     -0.02340303	     -0.00636014	     23.35790452	     25.88183621	      0.00000000	      0.00000000	      0.00000000	      0.00000000	      0.05000000	      0.10000000	      0.05000000	      0.10000000	      0.05000000	      0.10000000	      0.05000000	      0.10000000
      0.20310810	   -142.41522339	   -480.13864749	    160.46041558	    491.79722930	      0.04888408	      0.00000000	      0.17321831	      0.00000000	     -0.01465747	      0.00000000	     -0.10000000	     -0.00000000	     -0.05000000	     -0.00000000	      0.00000000	     -0.00000000	     42.38798118	   -168.63578398	      4.22365425	     -0.46026601	      1.97270039	     14.48737585	    -47.35732762	    154.41996080	      0.00351959	     -0.02011249	     -0.47233366	      0.04131443	     16.94876806	     -8.12227301	      0.04639613	      0.04171985	     -0.02340376	     -0.00600917	     23.36081800	     25.83858131	      0.00000000	      0.00000000	      0.00000000	      0.00000000	      0.05000000	      0.10000000	      0.05000000	      0.10000000	      0.05000000	      0.10000000	      0.05000000	      0.10000000
      0.20337514	   -142.54383100	   -480.13863436	    160.59173661	    491.20774483	      0.04913204	      0.00000000	      0.17375328	      0.00000000	     -0.01494920	      0.00000000	     -0.10000000	      0.00000000	     -0.05000000	      0.00000000	      0.00000000	      0.00000000	     42.34276306	   -168.13097895	      4.22312895	     -0.45899371	      1.97705850	     14.40489064	    -47.31625147	    153.42491112	      0.00351423	     -0.01997109	     -0.47232273	      0.04084729	     16.94658604	     -8.09026880	      0.04640722	      0.04142074	     -0.02340540	     -0.00618233	     23.36737333	     25.73997453	      0.00000000	      0.00000000	      0.00000000	      0.00000000	      0.05000000	      0.10000000	      0.05000000	      0.10000000	      0.05000000	      0.10000000	      0.05000000	      0.10000000
      0.20356839	   -142.63690408	   -480.13861920	    160.68667297	    490.77770756	      0.04931067	      0.00000000	      0.17413946	      0.00000000	     -0.01516021	      0.00000000	     -0.10000000	     -0.00000000	     -0.05000000	     -0.00000000	      0.00000000	     -0.00000000	     42.31012486	   -167.76386858	      4.22274951	     -0.45753819	      1.98019734	     14.34491368	    -47.28669279	    152.70186118	      0.00351037	     -0.01980089	     -0.47231487	      0.04064512	     16.94501250	     -8.06647329	      0.04641519	      0.04120910	     -0.02340658	     -0.00598186	     23.37210007	     25.66701397	      0.00000000	      0.00000000	      0.00000000	      0.00000000	      0.05000000	      0.10000000	      0.05000000	      0.10000000	      0.05000000	      0.10000000	      0.05000000	      0.10000000
      0.20374260	   -142.72080930	   -480.13864383	    160.77218525	    490.38844314	      0.04947113	      0.00000000	      0.17448687	      0.00000000	     -0.01535034	      0.00000000	     -0.10000000	     -0.00000000	     -0.05000000	     -0.00000000	      0.00000000	     -0.00000000	     42.28076384	   -167.43105096	      4.22240799	     -0.45675953	      1.98301605	     14.29050870	    -47.26016719	    152.04677946	      0.00350691	     -0.01993299	     -0.47230782	      0.04060665	     16.94359804	     -8.04470900	      0.04642234	      0.04108506	     -0.02340764	     -0.00623359	     23.37634854	     25.60043015	      0.00000000	      0.00000000	      0.00000000	      0.00000000	      0.05000000	      0.10000000	      0.05000000	      0.10000000	      0.05000000	      0.10000000	      0.05000000	      0.10000000
      0.20406729	   -142.87719618	   -480.13858211	    160.93138236	    489.65692046	      0.04976869	      0.00000000	      0.17513253	      0.00000000	     -0.01570447	      0.00000000	     -0.10000000	      0.00000000	     -0.05000000	      0.00000000	      0.00000000	      0.00000000	     42.22619774	   -166.80719121	      4.22177286	     -0.45424973	      1.98824175	     14.18805601	    -47.21103639	    150.81991614	      0.00350048	     -0.01933233	     -0.47229476	      0.03996040	     16.94097221	     -8.00362377	      0.04643558	      0.04066690	     -0.02340961	     -0.00579307	     23.38423448	     25.47361191	      0.00000000	      0.00000000	      0.00000000	      0.00000000	      0.05000000	      0.10000000	      0.05000000	      0.10000000	      0.05000000	      0.10000000	      0.05000000	      0.10000000
